<svg xmlns="http://www.w3.org/2000/svg" viewBox="0 0 329.69 273.74">
  <title>logo</title>
  <g id="O">
    <circle cx="146.34" cy="121.94" r="55.24" style="fill: none;stroke: #231f20;stroke-linecap: round;stroke-linejoin: round;stroke-width: 18px"/>
  </g>
  <g id="C">
    <path d="M361.16,438a95.5,95.5,0,1,1,1.78-154.53" transform="translate(-159.58 -238.2)" style="fill: none;stroke: #231f20;stroke-linecap: round;stroke-linejoin: round;stroke-width: 18px"/>
  </g>
  <g id="Layer_2" data-name="Layer 2">
    <path d="M419.42,330.18h54m-304.54,67.7c8.78,52.71,90.43,142.62,197.42,87.49,65.93-34,64.92-103.84,53.12-155.19a309.3,309.3,0,0,0-21.37-62L480,247.5" transform="translate(-159.58 -238.2)" style="fill: none;stroke: #231f20;stroke-linecap: round;stroke-linejoin: round;stroke-width: 18.6032438278198px"/>
    <path d="M419.42,330.18h54m-304.54,67.7c8.78,52.71,90.43,142.62,197.42,87.49,65.93-34,64.92-103.84,53.12-155.19a309.3,309.3,0,0,0-21.37-62L480,247.5" transform="translate(-159.58 -238.2)" style="fill: none;stroke: #231f20;stroke-linecap: round;stroke-linejoin: round;stroke-width: 18.6032438278198px"/>
  </g>
</svg>
